<svg xmlns="http://www.w3.org/2000/svg" xmlns:xlink="http://www.w3.org/1999/xlink" contentStyleType="text/css" data-diagram-type="CLASS" height="679px" preserveAspectRatio="none" style="width:551px;height:679px;background:#FFFFFF;" version="1.1" viewBox="0 0 551 679" width="551px" zoomAndPan="magnify"><defs/><g><!--class User--><g class="entity" data-entity="User" data-source-line="1" data-uid="ent0002" id="entity_User"><rect fill="#F1F1F1" height="145.7813" rx="2.5" ry="2.5" style="stroke:#181818;stroke-width:0.5;" width="145.6084" x="112.67" y="7"/><ellipse cx="165.2691" cy="23" fill="#ADD1B2" rx="11" ry="11" style="stroke:#181818;stroke-width:1;"/><path d="M168.2379,28.6406 Q167.6597,28.9375 167.0191,29.0781 Q166.3785,29.2344 165.6754,29.2344 Q163.1754,29.2344 161.8472,27.5938 Q160.5347,25.9375 160.5347,22.8125 Q160.5347,19.6875 161.8472,18.0313 Q163.1754,16.375 165.6754,16.375 Q166.3785,16.375 167.0191,16.5313 Q167.6754,16.6875 168.2379,16.9844 L168.2379,19.7031 Q167.6129,19.125 167.0191,18.8594 Q166.4254,18.5781 165.8004,18.5781 Q164.4566,18.5781 163.7691,19.6563 Q163.0816,20.7188 163.0816,22.8125 Q163.0816,24.9063 163.7691,25.9844 Q164.4566,27.0469 165.8004,27.0469 Q166.4254,27.0469 167.0191,26.7813 Q167.6129,26.5 168.2379,25.9219 L168.2379,28.6406 Z " fill="#000000"/><text fill="#000000" font-family="sans-serif" font-size="14" lengthAdjust="spacing" textLength="31.9102" x="185.7691" y="27.8467">User</text><line style="stroke:#181818;stroke-width:0.5;" x1="113.67" x2="257.2784" y1="39" y2="39"/><ellipse cx="123.67" cy="52.6484" fill="none" rx="3" ry="3" style="stroke:#038048;stroke-width:1;"/><text fill="#000000" font-family="sans-serif" font-size="14" lengthAdjust="spacing" textLength="87.5547" x="132.67" y="55.9951">_id: ObjectId</text><ellipse cx="123.67" cy="68.9453" fill="none" rx="3" ry="3" style="stroke:#038048;stroke-width:1;"/><text fill="#000000" font-family="sans-serif" font-size="14" lengthAdjust="spacing" textLength="119.6084" x="132.67" y="72.292">firstName: String</text><ellipse cx="123.67" cy="85.2422" fill="none" rx="3" ry="3" style="stroke:#038048;stroke-width:1;"/><text fill="#000000" font-family="sans-serif" font-size="14" lengthAdjust="spacing" textLength="117.5029" x="132.67" y="88.5889">lastName: String</text><ellipse cx="123.67" cy="101.5391" fill="none" rx="3" ry="3" style="stroke:#038048;stroke-width:1;"/><text fill="#000000" font-family="sans-serif" font-size="14" lengthAdjust="spacing" textLength="77.7725" x="132.67" y="104.8857">role: String</text><ellipse cx="123.67" cy="117.8359" fill="none" rx="3" ry="3" style="stroke:#038048;stroke-width:1;"/><text fill="#000000" font-family="sans-serif" font-size="14" lengthAdjust="spacing" textLength="89.5576" x="132.67" y="121.1826">email: String</text><ellipse cx="123.67" cy="134.1328" fill="none" rx="3" ry="3" style="stroke:#038048;stroke-width:1;"/><text fill="#000000" font-family="sans-serif" font-size="14" lengthAdjust="spacing" textLength="117.6602" x="132.67" y="137.4795">password: String</text><line style="stroke:#181818;stroke-width:0.5;" x1="113.67" x2="257.2784" y1="144.7813" y2="144.7813"/></g><!--class Product--><g class="entity" data-entity="Product" data-source-line="10" data-uid="ent0003" id="entity_Product"><rect fill="#F1F1F1" height="113.1875" rx="2.5" ry="2.5" style="stroke:#181818;stroke-width:0.5;" width="128.5596" x="121.19" y="559.15"/><ellipse cx="155.4723" cy="575.15" fill="#ADD1B2" rx="11" ry="11" style="stroke:#181818;stroke-width:1;"/><path d="M158.4411,580.7906 Q157.8629,581.0875 157.2223,581.2281 Q156.5817,581.3844 155.8786,581.3844 Q153.3786,581.3844 152.0504,579.7438 Q150.7379,578.0875 150.7379,574.9625 Q150.7379,571.8375 152.0504,570.1813 Q153.3786,568.525 155.8786,568.525 Q156.5817,568.525 157.2223,568.6813 Q157.8786,568.8375 158.4411,569.1344 L158.4411,571.8531 Q157.8161,571.275 157.2223,571.0094 Q156.6286,570.7281 156.0036,570.7281 Q154.6598,570.7281 153.9723,571.8063 Q153.2848,572.8688 153.2848,574.9625 Q153.2848,577.0563 153.9723,578.1344 Q154.6598,579.1969 156.0036,579.1969 Q156.6286,579.1969 157.2223,578.9313 Q157.8161,578.65 158.4411,578.0719 L158.4411,580.7906 Z " fill="#000000"/><text fill="#000000" font-family="sans-serif" font-size="14" lengthAdjust="spacing" textLength="53.71" x="173.7573" y="579.9967">Product</text><line style="stroke:#181818;stroke-width:0.5;" x1="122.19" x2="248.7496" y1="591.15" y2="591.15"/><ellipse cx="132.19" cy="604.7984" fill="none" rx="3" ry="3" style="stroke:#038048;stroke-width:1;"/><text fill="#000000" font-family="sans-serif" font-size="14" lengthAdjust="spacing" textLength="87.5547" x="141.19" y="608.1451">_id: ObjectId</text><ellipse cx="132.19" cy="621.0953" fill="none" rx="3" ry="3" style="stroke:#038048;stroke-width:1;"/><text fill="#000000" font-family="sans-serif" font-size="14" lengthAdjust="spacing" textLength="90.6514" x="141.19" y="624.442">name: String</text><ellipse cx="132.19" cy="637.3922" fill="none" rx="3" ry="3" style="stroke:#038048;stroke-width:1;"/><text fill="#000000" font-family="sans-serif" font-size="14" lengthAdjust="spacing" textLength="100.249" x="141.19" y="640.7389">price: Number</text><ellipse cx="132.19" cy="653.6891" fill="none" rx="3" ry="3" style="stroke:#038048;stroke-width:1;"/><text fill="#000000" font-family="sans-serif" font-size="14" lengthAdjust="spacing" textLength="102.5596" x="141.19" y="657.0357">stock: Number</text><line style="stroke:#181818;stroke-width:0.5;" x1="122.19" x2="248.7496" y1="664.3375" y2="664.3375"/></g><!--class Cart--><g class="entity" data-entity="Cart" data-source-line="17" data-uid="ent0004" id="entity_Cart"><rect fill="#F1F1F1" height="80.5938" rx="2.5" ry="2.5" style="stroke:#181818;stroke-width:0.5;" width="137.3301" x="20.81" y="220.93"/><ellipse cx="70.4252" cy="236.93" fill="#ADD1B2" rx="11" ry="11" style="stroke:#181818;stroke-width:1;"/><path d="M73.394,242.5706 Q72.8159,242.8675 72.1752,243.0081 Q71.5346,243.1644 70.8315,243.1644 Q68.3315,243.1644 67.0034,241.5238 Q65.6909,239.8675 65.6909,236.7425 Q65.6909,233.6175 67.0034,231.9613 Q68.3315,230.305 70.8315,230.305 Q71.5346,230.305 72.1752,230.4613 Q72.8315,230.6175 73.394,230.9144 L73.394,233.6331 Q72.769,233.055 72.1752,232.7894 Q71.5815,232.5081 70.9565,232.5081 Q69.6127,232.5081 68.9252,233.5863 Q68.2377,234.6488 68.2377,236.7425 Q68.2377,238.8363 68.9252,239.9144 Q69.6127,240.9769 70.9565,240.9769 Q71.5815,240.9769 72.1752,240.7113 Q72.769,240.43 73.394,239.8519 L73.394,242.5706 Z " fill="#000000"/><text fill="#000000" font-family="sans-serif" font-size="14" lengthAdjust="spacing" textLength="29.5996" x="90.9252" y="241.7767">Cart</text><line style="stroke:#181818;stroke-width:0.5;" x1="21.81" x2="157.1401" y1="252.93" y2="252.93"/><ellipse cx="31.81" cy="266.5784" fill="none" rx="3" ry="3" style="stroke:#038048;stroke-width:1;"/><text fill="#000000" font-family="sans-serif" font-size="14" lengthAdjust="spacing" textLength="87.5547" x="40.81" y="269.9251">_id: ObjectId</text><ellipse cx="31.81" cy="282.8753" fill="none" rx="3" ry="3" style="stroke:#038048;stroke-width:1;"/><text fill="#000000" font-family="sans-serif" font-size="14" lengthAdjust="spacing" textLength="111.3301" x="40.81" y="286.222">userId: ObjectId</text><line style="stroke:#181818;stroke-width:0.5;" x1="21.81" x2="157.1401" y1="293.5238" y2="293.5238"/></g><!--class CartItem--><g class="entity" data-entity="CartItem" data-source-line="22" data-uid="ent0005" id="entity_CartItem"><rect fill="#F1F1F1" height="113.1875" rx="2.5" ry="2.5" style="stroke:#181818;stroke-width:0.5;" width="160.9482" x="7" y="377.82"/><ellipse cx="52.4897" cy="393.82" fill="#ADD1B2" rx="11" ry="11" style="stroke:#181818;stroke-width:1;"/><path d="M55.4585,399.4606 Q54.8804,399.7575 54.2397,399.8981 Q53.5991,400.0544 52.896,400.0544 Q50.396,400.0544 49.0679,398.4138 Q47.7554,396.7575 47.7554,393.6325 Q47.7554,390.5075 49.0679,388.8513 Q50.396,387.195 52.896,387.195 Q53.5991,387.195 54.2397,387.3513 Q54.896,387.5075 55.4585,387.8044 L55.4585,390.5231 Q54.8335,389.945 54.2397,389.6794 Q53.646,389.3981 53.021,389.3981 Q51.6772,389.3981 50.9897,390.4763 Q50.3022,391.5388 50.3022,393.6325 Q50.3022,395.7263 50.9897,396.8044 Q51.6772,397.8669 53.021,397.8669 Q53.646,397.8669 54.2397,397.6013 Q54.8335,397.32 55.4585,396.7419 L55.4585,399.4606 Z " fill="#000000"/><text fill="#000000" font-family="sans-serif" font-size="14" lengthAdjust="spacing" textLength="61.4688" x="72.9897" y="398.6667">CartItem</text><line style="stroke:#181818;stroke-width:0.5;" x1="8" x2="166.9482" y1="409.82" y2="409.82"/><ellipse cx="18" cy="423.4684" fill="none" rx="3" ry="3" style="stroke:#038048;stroke-width:1;"/><text fill="#000000" font-family="sans-serif" font-size="14" lengthAdjust="spacing" textLength="87.5547" x="27" y="426.8151">_id: ObjectId</text><ellipse cx="18" cy="439.7653" fill="none" rx="3" ry="3" style="stroke:#038048;stroke-width:1;"/><text fill="#000000" font-family="sans-serif" font-size="14" lengthAdjust="spacing" textLength="108.3154" x="27" y="443.112">cartId: ObjectId</text><ellipse cx="18" cy="456.0622" fill="none" rx="3" ry="3" style="stroke:#038048;stroke-width:1;"/><text fill="#000000" font-family="sans-serif" font-size="14" lengthAdjust="spacing" textLength="134.9482" x="27" y="459.4089">productId: ObjectId</text><ellipse cx="18" cy="472.3591" fill="none" rx="3" ry="3" style="stroke:#038048;stroke-width:1;"/><text fill="#000000" font-family="sans-serif" font-size="14" lengthAdjust="spacing" textLength="123.7715" x="27" y="475.7057">quantity: Number</text><line style="stroke:#181818;stroke-width:0.5;" x1="8" x2="166.9482" y1="483.0075" y2="483.0075"/></g><!--class Order--><g class="entity" data-entity="Order" data-source-line="29" data-uid="ent0006" id="entity_Order"><rect fill="#F1F1F1" height="96.8906" rx="2.5" ry="2.5" style="stroke:#181818;stroke-width:0.5;" width="178.4346" x="194.26" y="212.78"/><ellipse cx="259.2117" cy="228.78" fill="#ADD1B2" rx="11" ry="11" style="stroke:#181818;stroke-width:1;"/><path d="M262.1804,234.4206 Q261.6023,234.7175 260.9617,234.8581 Q260.321,235.0144 259.6179,235.0144 Q257.1179,235.0144 255.7898,233.3738 Q254.4773,231.7175 254.4773,228.5925 Q254.4773,225.4675 255.7898,223.8113 Q257.1179,222.155 259.6179,222.155 Q260.321,222.155 260.9617,222.3113 Q261.6179,222.4675 262.1804,222.7644 L262.1804,225.4831 Q261.5554,224.905 260.9617,224.6394 Q260.3679,224.3581 259.7429,224.3581 Q258.3992,224.3581 257.7117,225.4363 Q257.0242,226.4988 257.0242,228.5925 Q257.0242,230.6863 257.7117,231.7644 Q258.3992,232.8269 259.7429,232.8269 Q260.3679,232.8269 260.9617,232.5613 Q261.5554,232.28 262.1804,231.7019 L262.1804,234.4206 Z " fill="#000000"/><text fill="#000000" font-family="sans-serif" font-size="14" lengthAdjust="spacing" textLength="40.0313" x="279.7117" y="233.6267">Order</text><line style="stroke:#181818;stroke-width:0.5;" x1="195.26" x2="371.6946" y1="244.78" y2="244.78"/><ellipse cx="205.26" cy="258.4284" fill="none" rx="3" ry="3" style="stroke:#038048;stroke-width:1;"/><text fill="#000000" font-family="sans-serif" font-size="14" lengthAdjust="spacing" textLength="87.5547" x="214.26" y="261.7751">_id: ObjectId</text><ellipse cx="205.26" cy="274.7253" fill="none" rx="3" ry="3" style="stroke:#038048;stroke-width:1;"/><text fill="#000000" font-family="sans-serif" font-size="14" lengthAdjust="spacing" textLength="111.3301" x="214.26" y="278.072">userId: ObjectId</text><ellipse cx="205.26" cy="291.0222" fill="none" rx="3" ry="3" style="stroke:#038048;stroke-width:1;"/><text fill="#000000" font-family="sans-serif" font-size="14" lengthAdjust="spacing" textLength="152.4346" x="214.26" y="294.3689">totalAmount: Number</text><line style="stroke:#181818;stroke-width:0.5;" x1="195.26" x2="371.6946" y1="301.6706" y2="301.6706"/></g><!--class OrderItem--><g class="entity" data-entity="OrderItem" data-source-line="35" data-uid="ent0007" id="entity_OrderItem"><rect fill="#F1F1F1" height="129.4844" rx="2.5" ry="2.5" style="stroke:#181818;stroke-width:0.5;" width="160.9482" x="203" y="369.67"/><ellipse cx="243.6715" cy="385.67" fill="#ADD1B2" rx="11" ry="11" style="stroke:#181818;stroke-width:1;"/><path d="M246.6403,391.3106 Q246.0622,391.6075 245.4215,391.7481 Q244.7809,391.9044 244.0778,391.9044 Q241.5778,391.9044 240.2497,390.2638 Q238.9372,388.6075 238.9372,385.4825 Q238.9372,382.3575 240.2497,380.7013 Q241.5778,379.045 244.0778,379.045 Q244.7809,379.045 245.4215,379.2013 Q246.0778,379.3575 246.6403,379.6544 L246.6403,382.3731 Q246.0153,381.795 245.4215,381.5294 Q244.8278,381.2481 244.2028,381.2481 Q242.859,381.2481 242.1715,382.3263 Q241.484,383.3888 241.484,385.4825 Q241.484,387.5763 242.1715,388.6544 Q242.859,389.7169 244.2028,389.7169 Q244.8278,389.7169 245.4215,389.4513 Q246.0153,389.17 246.6403,388.5919 L246.6403,391.3106 Z " fill="#000000"/><text fill="#000000" font-family="sans-serif" font-size="14" lengthAdjust="spacing" textLength="71.9004" x="263.3763" y="390.5167">OrderItem</text><line style="stroke:#181818;stroke-width:0.5;" x1="204" x2="362.9482" y1="401.67" y2="401.67"/><ellipse cx="214" cy="415.3184" fill="none" rx="3" ry="3" style="stroke:#038048;stroke-width:1;"/><text fill="#000000" font-family="sans-serif" font-size="14" lengthAdjust="spacing" textLength="87.5547" x="223" y="418.6651">_id: ObjectId</text><ellipse cx="214" cy="431.6153" fill="none" rx="3" ry="3" style="stroke:#038048;stroke-width:1;"/><text fill="#000000" font-family="sans-serif" font-size="14" lengthAdjust="spacing" textLength="118.3711" x="223" y="434.962">orderId: ObjectId</text><ellipse cx="214" cy="447.9122" fill="none" rx="3" ry="3" style="stroke:#038048;stroke-width:1;"/><text fill="#000000" font-family="sans-serif" font-size="14" lengthAdjust="spacing" textLength="134.9482" x="223" y="451.2589">productId: ObjectId</text><ellipse cx="214" cy="464.2091" fill="none" rx="3" ry="3" style="stroke:#038048;stroke-width:1;"/><text fill="#000000" font-family="sans-serif" font-size="14" lengthAdjust="spacing" textLength="123.7715" x="223" y="467.5557">quantity: Number</text><ellipse cx="214" cy="480.5059" fill="none" rx="3" ry="3" style="stroke:#038048;stroke-width:1;"/><text fill="#000000" font-family="sans-serif" font-size="14" lengthAdjust="spacing" textLength="100.249" x="223" y="483.8526">price: Number</text><line style="stroke:#181818;stroke-width:0.5;" x1="204" x2="362.9482" y1="491.1544" y2="491.1544"/></g><!--class Invoice--><g class="entity" data-entity="Invoice" data-source-line="43" data-uid="ent0008" id="entity_Invoice"><rect fill="#F1F1F1" height="129.4844" rx="2.5" ry="2.5" style="stroke:#181818;stroke-width:0.5;" width="145.4238" x="398.76" y="369.67"/><ellipse cx="442.277" cy="385.67" fill="#ADD1B2" rx="11" ry="11" style="stroke:#181818;stroke-width:1;"/><path d="M445.2457,391.3106 Q444.6676,391.6075 444.027,391.7481 Q443.3864,391.9044 442.6832,391.9044 Q440.1832,391.9044 438.8551,390.2638 Q437.5426,388.6075 437.5426,385.4825 Q437.5426,382.3575 438.8551,380.7013 Q440.1832,379.045 442.6832,379.045 Q443.3864,379.045 444.027,379.2013 Q444.6832,379.3575 445.2457,379.6544 L445.2457,382.3731 Q444.6207,381.795 444.027,381.5294 Q443.4332,381.2481 442.8082,381.2481 Q441.4645,381.2481 440.777,382.3263 Q440.0895,383.3888 440.0895,385.4825 Q440.0895,387.5763 440.777,388.6544 Q441.4645,389.7169 442.8082,389.7169 Q443.4332,389.7169 444.027,389.4513 Q444.6207,389.17 445.2457,388.5919 L445.2457,391.3106 Z " fill="#000000"/><text fill="#000000" font-family="sans-serif" font-size="14" lengthAdjust="spacing" textLength="50.0527" x="462.6141" y="390.5167">Invoice</text><line style="stroke:#181818;stroke-width:0.5;" x1="399.76" x2="543.1838" y1="401.67" y2="401.67"/><ellipse cx="409.76" cy="415.3184" fill="none" rx="3" ry="3" style="stroke:#038048;stroke-width:1;"/><text fill="#000000" font-family="sans-serif" font-size="14" lengthAdjust="spacing" textLength="87.5547" x="418.76" y="418.6651">_id: ObjectId</text><ellipse cx="409.76" cy="431.6153" fill="none" rx="3" ry="3" style="stroke:#038048;stroke-width:1;"/><text fill="#000000" font-family="sans-serif" font-size="14" lengthAdjust="spacing" textLength="118.3711" x="418.76" y="434.962">orderId: ObjectId</text><ellipse cx="409.76" cy="447.9122" fill="none" rx="3" ry="3" style="stroke:#038048;stroke-width:1;"/><text fill="#000000" font-family="sans-serif" font-size="14" lengthAdjust="spacing" textLength="111.3301" x="418.76" y="451.2589">userId: ObjectId</text><ellipse cx="409.76" cy="464.2091" fill="none" rx="3" ry="3" style="stroke:#038048;stroke-width:1;"/><text fill="#000000" font-family="sans-serif" font-size="14" lengthAdjust="spacing" textLength="119.4238" x="418.76" y="467.5557">amount: Number</text><ellipse cx="409.76" cy="480.5059" fill="none" rx="3" ry="3" style="stroke:#038048;stroke-width:1;"/><text fill="#000000" font-family="sans-serif" font-size="14" lengthAdjust="spacing" textLength="93.9668" x="418.76" y="483.8526">status: String</text><line style="stroke:#181818;stroke-width:0.5;" x1="399.76" x2="543.1838" y1="491.1544" y2="491.1544"/></g><!--link User to Cart--><g class="link" data-entity-1="User" data-entity-2="Cart" data-source-line="51" data-uid="lnk9" id="link_User_Cart"><path codeLine="51" d="M146.84,153.05 C134.49,176.12 121.29,200.8 110.66,220.65" fill="none" id="User-Cart" style="stroke:#181818;stroke-width:1;"/><text fill="#000000" font-family="sans-serif" font-size="13" lengthAdjust="spacing" textLength="8.271" x="134.7893" y="172.8111">1</text><text fill="#000000" font-family="sans-serif" font-size="13" lengthAdjust="spacing" textLength="8.271" x="105.5287" y="209.7652">1</text></g><!--link Cart to CartItem--><g class="link" data-entity-1="Cart" data-entity-2="CartItem" data-source-line="52" data-uid="lnk10" id="link_Cart_CartItem"><path codeLine="52" d="M89.01,301.93 C88.75,324.35 88.42,352.73 88.13,377.39" fill="none" id="Cart-CartItem" style="stroke:#181818;stroke-width:1;"/><text fill="#000000" font-family="sans-serif" font-size="13" lengthAdjust="spacing" textLength="8.271" x="80.32" y="321.6899">1</text><text fill="#000000" font-family="sans-serif" font-size="13" lengthAdjust="spacing" textLength="6.5" x="81.8748" y="366.6012">*</text></g><!--link CartItem to Product--><g class="link" data-entity-1="CartItem" data-entity-2="Product" data-source-line="53" data-uid="lnk11" id="link_CartItem_Product"><path codeLine="53" d="M117.94,491.17 C129.69,512.66 143.1,537.2 154.85,558.71" fill="none" id="CartItem-Product" style="stroke:#181818;stroke-width:1;"/><text fill="#000000" font-family="sans-serif" font-size="13" lengthAdjust="spacing" textLength="6.5" x="115.3179" y="511.0762">*</text><text fill="#000000" font-family="sans-serif" font-size="13" lengthAdjust="spacing" textLength="8.271" x="142.6472" y="547.9199">1</text></g><!--link User to Order--><g class="link" data-entity-1="User" data-entity-2="Order" data-source-line="54" data-uid="lnk12" id="link_User_Order"><path codeLine="54" d="M224.91,153.05 C235.81,173.01 247.37,194.16 257.32,212.36" fill="none" id="User-Order" style="stroke:#181818;stroke-width:1;"/><text fill="#000000" font-family="sans-serif" font-size="13" lengthAdjust="spacing" textLength="8.271" x="220.3004" y="172.8111">1</text><text fill="#000000" font-family="sans-serif" font-size="13" lengthAdjust="spacing" textLength="6.5" x="247.4356" y="201.8617">*</text></g><!--link Order to OrderItem--><g class="link" data-entity-1="Order" data-entity-2="OrderItem" data-source-line="55" data-uid="lnk13" id="link_Order_OrderItem"><path codeLine="55" d="M283.47,309.91 C283.47,328.31 283.47,349.64 283.47,369.34" fill="none" id="Order-OrderItem" style="stroke:#181818;stroke-width:1;"/><text fill="#000000" font-family="sans-serif" font-size="13" lengthAdjust="spacing" textLength="8.271" x="274.9255" y="329.8872">1</text><text fill="#000000" font-family="sans-serif" font-size="13" lengthAdjust="spacing" textLength="6.5" x="277.1688" y="358.4766">*</text></g><!--link OrderItem to Product--><g class="link" data-entity-1="OrderItem" data-entity-2="Product" data-source-line="56" data-uid="lnk14" id="link_OrderItem_Product"><path codeLine="56" d="M248.37,499.65 C237.83,518.95 226.34,539.96 216.11,558.68" fill="none" id="OrderItem-Product" style="stroke:#181818;stroke-width:1;"/><text fill="#000000" font-family="sans-serif" font-size="13" lengthAdjust="spacing" textLength="6.5" x="238.4663" y="519.2248">*</text><text fill="#000000" font-family="sans-serif" font-size="13" lengthAdjust="spacing" textLength="8.271" x="211.3733" y="547.8863">1</text></g><!--link Order to Invoice--><g class="link" data-entity-1="Order" data-entity-2="Invoice" data-source-line="57" data-uid="lnk15" id="link_Order_Invoice"><path codeLine="57" d="M336.09,310.14 C356.19,328.43 379.44,349.6 400.94,369.18" fill="none" id="Order-Invoice" style="stroke:#181818;stroke-width:1;"/><text fill="#000000" font-family="sans-serif" font-size="13" lengthAdjust="spacing" textLength="8.271" x="334.6405" y="329.7965">1</text><text fill="#000000" font-family="sans-serif" font-size="13" lengthAdjust="spacing" textLength="8.271" x="385.2679" y="358.7532">1</text></g><!--SRC=[hPCzRyCW48Rt_WhaCL66hjcYJ5wIIbNdYW29Q0qunz6gglhVYy-EOySuGcePGBhdk2zUHCMzPozU0Vj-ODrQibSjrsn_U5C2Ipcm7pLut76ZrkmPGTlJWCL8OxHauAgKfp9SLmbx7MlvT217w8TssWGL-mHE1e5PzTfqgJLe4UsxO0uA1dQFJhoFx9FiMmvvgKESQNcBak5AL2Ohf6YSqwXkXp93pu5RrFXrlxKzo4mP97jh4JharSQuO34ZMtRhZhp_hVSv6KogBEs7Yqv_hl7EnFXqM1SrSWn-xZFGdoqU2xPQqT4eYG0fz08MHI-n7jBG6zBTx3xKD6fqeLSYqghZ5lM1hyyv4tbyFnxTQ7y1]--></g></svg>